Coordinates
version=1
nRows=17
nColumns=40
inDegrees=yes

Units are S.I. units (second, meters, Newtons, ...)
If the header above contains a line with 'inDegrees', this indicates whether rotational values are in degrees (yes) or radians (no).

endheader
time	pelvis_tilt	pelvis_list	pelvis_rotation	pelvis_tx	pelvis_ty	pelvis_tz	hip_flexion_r	hip_adduction_r	hip_rotation_r	knee_angle_r	knee_angle_r_beta	ankle_angle_r	subtalar_angle_r	mtp_angle_r	hip_flexion_l	hip_adduction_l	hip_rotation_l	knee_angle_l	knee_angle_l_beta	ankle_angle_l	subtalar_angle_l	mtp_angle_l	lumbar_extension	lumbar_bending	lumbar_rotation	arm_flex_r	arm_add_r	arm_rot_r	elbow_flex_r	pro_sup_r	wrist_flex_r	wrist_dev_r	arm_flex_l	arm_add_l	arm_rot_l	elbow_flex_l	pro_sup_l	wrist_flex_l	wrist_dev_l
      3.82500000	     -9.60411346	      2.40447224	      1.22456639	     -0.22041049	      1.31227546	     -0.90719665	     14.33133783	    -11.15530067	    -10.11603976	     10.45223622	      0.18242594	    -37.00984888	      0.00000000	      0.00000000	     16.77057818	     -8.67388125	    -10.06313895	     13.63076085	      0.23790166	    -24.55646575	      0.00000000	      0.00000000	     -9.85446406	     -5.87468860	     -1.43600307	    -21.88857312	    -32.66051182	     13.48332954	     81.31902586	     45.00012639	      0.00000000	      0.00000000	    -27.05835933	    -41.28732729	     -5.18301891	     74.73309522	     45.00012639	      0.00000000	      0.00000000
      3.83000000	     -9.21946927	      2.12381339	      2.28237172	     -0.21917829	      1.32151550	     -0.90929939	     13.31299279	    -11.22514853	    -12.63125938	      9.81560172	      0.17131457	    -36.48112472	      0.00000000	      0.00000000	     16.23071245	     -8.44896017	     -7.57329362	     12.71459857	      0.22191161	    -22.89763870	      0.00000000	      0.00000000	    -10.33843883	     -5.40800699	     -2.13088736	    -22.00291827	    -32.89612777	     13.73488993	     81.31882340	     45.00011568	      0.00000000	      0.00000000	    -26.67863568	    -40.67613132	     -4.56941078	     74.74149162	     45.00011568	      0.00000000	      0.00000000
      3.83500000	     -9.28367980	      2.13737915	      2.09474837	     -0.21901820	      1.32948722	     -0.90906800	     13.28540582	    -11.23448401	    -12.69538034	      9.23350395	      0.16115505	    -35.63034281	      0.00000000	      0.00000000	     16.18056687	     -8.46628619	     -7.12755971	     12.64722825	      0.22073577	    -22.79635511	      0.00000000	      0.00000000	    -10.22893325	     -5.42916451	     -2.01105754	    -21.97636128	    -32.91573988	     13.74149698	     81.33394825	     45.00011508	      0.00000000	      0.00000000	    -26.70878653	    -40.62224335	     -4.53561010	     74.74198065	     45.00011508	      0.00000000	      0.00000000
      3.84000000	     -9.04334201	      1.93008867	      2.51032540	     -0.21832786	      1.33783397	     -0.90990550	     12.67901989	    -11.18168549	    -14.29335805	      8.68676014	      0.15161257	    -35.12523382	      0.00000000	      0.00000000	     15.77943227	     -8.50021812	     -6.05086359	     12.11891706	      0.21151500	    -20.35791605	      0.00000000	      0.00000000	    -10.35340225	     -4.90225825	     -2.19614030	    -22.31427011	    -33.30915299	     14.06546888	     81.52507968	     45.00009974	      0.00000000	      0.00000000	    -26.63467757	    -39.98961052	     -3.67759883	     74.75492783	     45.00009974	      0.00000000	      0.00000000
      3.84500000	     -9.11791063	      1.85459057	      2.45589590	     -0.21822681	      1.34527381	     -0.90980510	     12.66031836	    -11.15420950	    -15.07517866	      8.24666974	      0.14393154	    -34.56143261	      0.00000000	      0.00000000	     15.66497827	     -8.59599029	     -5.81866313	     11.58780428	      0.20224534	    -20.01384370	      0.00000000	      0.00000000	    -10.18451615	     -5.02234822	     -1.70916372	    -22.23860201	    -33.38433591	     14.10319732	     81.63064830	     45.00009665	      0.00000000	      0.00000000	    -26.81017404	    -39.90279957	     -3.52461098	     74.75769611	     45.00009665	      0.00000000	      0.00000000
      3.85000000	     -9.27362562	      1.80599472	      2.46182802	     -0.21789274	      1.35241984	     -0.90988619	     12.67725865	    -11.16777108	    -15.42403121	      7.82859940	      0.13663484	    -33.90849278	      0.00000000	      0.00000000	     15.74740935	     -8.65427349	     -6.13029444	     11.36906201	      0.19842757	    -19.96719598	      0.00000000	      0.00000000	    -10.15920207	     -4.98261046	     -1.67360299	    -22.24500316	    -33.39393081	     14.10805263	     81.63914855	     45.00009633	      0.00000000	      0.00000000	    -26.82597672	    -39.89781433	     -3.51085201	     74.75799114	     45.00009633	      0.00000000	      0.00000000
      3.85500000	     -9.15552602	      1.66241212	      2.46415709	     -0.21797573	      1.35969732	     -0.90987505	     12.36905497	    -11.04385570	    -15.68728592	      7.33962878	      0.12810069	    -32.67104695	      0.00000000	      0.00000000	     15.50522550	     -8.85302783	     -6.32906604	     11.06719833	      0.19315905	    -19.81144607	      0.00000000	      0.00000000	     -9.88091626	     -4.81878996	     -1.53283932	    -22.29155806	    -33.42281218	     14.12427344	     81.65602640	     45.00009542	      0.00000000	      0.00000000	    -26.89625024	    -39.87397626	     -3.47818468	     74.75881634	     45.00009542	      0.00000000	      0.00000000
      3.86000000	     -9.11760738	      1.59850619	      2.49781570	     -0.21803631	      1.36649821	     -0.90992372	     12.21452677	    -11.05445888	    -16.07100372	      6.99428339	      0.12207327	    -31.91994262	      0.00000000	      0.00000000	     15.38853363	     -8.95806108	     -6.90079622	     10.68305564	      0.18645450	    -19.62509494	      0.00000000	      0.00000000	     -9.86999346	     -4.68377147	     -1.42688105	    -22.36806698	    -33.46844283	     14.14248279	     81.67141179	     45.00009439	      0.00000000	      0.00000000	    -26.96499836	    -39.86732252	     -3.44918529	     74.75976116	     45.00009439	      0.00000000	      0.00000000
      3.86500000	     -9.25461634	      1.53870377	      2.58700485	     -0.21843322	      1.37288021	     -0.90999914	     12.28654662	    -11.09183027	    -16.33295488	      6.72743891	      0.11741596	    -31.54708582	      0.00000000	      0.00000000	     15.53535885	     -9.05931599	     -7.39482854	     10.47453083	      0.18281505	    -19.57657457	      0.00000000	      0.00000000	     -9.95865117	     -4.65636601	     -1.40831867	    -22.38607233	    -33.48293787	     14.14548731	     81.67514941	     45.00009415	      0.00000000	      0.00000000	    -26.97927802	    -39.87346614	     -3.44470682	     74.75998420	     45.00009415	      0.00000000	      0.00000000
      3.87000000	     -9.34990133	      1.51034928	      2.66927583	     -0.21864231	      1.37902873	     -0.90999954	     12.25003046	    -11.15062394	    -16.57915608	      6.34676884	      0.11077201	    -31.03907417	      0.00000000	      0.00000000	     15.62934228	     -9.13804442	     -8.03503684	     10.27484639	      0.17932990	    -19.51939576	      0.00000000	      0.00000000	     -9.94325766	     -4.60852808	     -1.37675034	    -22.41442520	    -33.49983907	     14.14961197	     81.67684097	     45.00009387	      0.00000000	      0.00000000	    -27.00376410	    -39.88184418	     -3.44196822	     74.76023803	     45.00009387	      0.00000000	      0.00000000
      3.87500000	     -9.42410078	      1.26781737	      2.28873704	     -0.21938586	      1.38494554	     -0.90857579	     12.53425253	    -10.87036451	    -17.57007846	      6.34630187	      0.11076386	    -30.68841094	      0.00000000	      0.00000000	     15.68886759	     -9.69790251	     -9.24159176	     10.13331413	      0.17685970	    -19.44417257	      0.00000000	      0.00000000	     -9.86220434	     -4.59475760	     -1.27872113	    -22.44170154	    -33.52202366	     14.15462567	     81.68257886	     45.00009350	      0.00000000	      0.00000000	    -27.05998895	    -39.89326339	     -3.44177269	     74.76058406	     45.00009350	      0.00000000	      0.00000000
      3.88000000	     -9.23737327	      1.46991111	      1.61282221	     -0.21977777	      1.39090655	     -0.90741295	     12.48221722	    -10.98217778	    -16.33358040	      6.20628919	      0.10832018	    -29.87426351	      0.00000000	      0.00000000	     15.41467775	     -9.82085608	    -11.41681950	     10.38763029	      0.18129835	    -18.56148383	      0.00000000	      0.00000000	     -9.87722794	     -4.86289792	     -0.26225446	    -22.85408122	    -33.80082514	     14.24427358	     81.72120588	     45.00008867	      0.00000000	      0.00000000	    -27.70491022	    -40.09597799	     -3.46205651	     74.76511881	     45.00008867	      0.00000000	      0.00000000
      3.88500000	     -9.38669099	      1.42776441	      1.66930505	     -0.22062244	      1.39623328	     -0.90728119	     12.63810887	    -11.03722724	    -16.60166136	      6.03621553	      0.10535184	    -29.74271290	      0.00000000	      0.00000000	     15.66153747	     -9.93633543	    -11.92624815	     10.24711651	      0.17884592	    -18.52725915	      0.00000000	      0.00000000	     -9.93885727	     -4.85178563	     -0.25028958	    -22.87298048	    -33.81049313	     14.24898875	     81.72320068	     45.00008844	      0.00000000	      0.00000000	    -27.72023709	    -40.11726834	     -3.46430481	     74.76534680	     45.00008844	      0.00000000	      0.00000000
      3.89000000	     -9.64354621	      1.56327934	      1.23575300	     -0.22146244	      1.40115221	     -0.90635015	     13.12947515	    -11.18168818	    -15.79946712	      6.11858002	      0.10678937	    -29.42603075	      0.00000000	      0.00000000	     15.95544076	    -10.04561342	    -13.36686108	     10.36147310	      0.18084182	    -18.12927858	      0.00000000	      0.00000000	     -9.47619059	     -5.11550275	      0.09086562	    -23.18579806	    -33.93277269	     14.34273394	     81.73364366	     45.00008476	      0.00000000	      0.00000000	    -28.05180693	    -40.39192858	     -3.50750870	     74.76892702	     45.00008476	      0.00000000	      0.00000000
      3.89500000	     -9.73257321	      1.56302498	      1.39998188	     -0.22190031	      1.40609006	     -0.90628760	     13.17360767	    -11.30635491	    -15.92803505	      6.04794713	      0.10555659	    -29.34231540	      0.00000000	      0.00000000	     16.14834969	    -10.08849109	    -13.76791936	     10.29336732	      0.17965315	    -18.10789401	      0.00000000	      0.00000000	     -9.52119826	     -5.12323922	      0.09984870	    -23.20468557	    -33.93919485	     14.35066413	     81.73378566	     45.00008448	      0.00000000	      0.00000000	    -28.06745424	    -40.41672085	     -3.51099194	     74.76920496	     45.00008448	      0.00000000	      0.00000000
      3.90000000	     -9.71838930	      1.52491797	      1.55213761	     -0.22244065	      1.41091260	     -0.90631167	     13.13567881	    -11.40474915	    -15.86093165	      6.07964593	      0.10610984	    -29.34467418	      0.00000000	      0.00000000	     16.23221325	    -10.16698427	    -13.87266502	     10.27630213	      0.17935531	    -18.10528451	      0.00000000	      0.00000000	     -9.51589485	     -5.12949909	      0.09928511	    -23.20948739	    -33.94002950	     14.35252568	     81.73321213	     45.00008442	      0.00000000	      0.00000000	    -28.07035812	    -40.42153312	     -3.51161403	     74.76925561	     45.00008442	      0.00000000	      0.00000000
      3.90500000	     -9.84475721	      1.63106054	      1.25824681	     -0.22263900	      1.41529564	     -0.90558662	     13.41752962	    -11.54057049	    -15.07866546	      6.26358813	      0.10932024	    -29.26723221	      0.00000000	      0.00000000	     16.49357104	    -10.30435402	    -15.12267516	     10.82768051	      0.18897868	    -18.04425327	      0.00000000	      0.00000000	     -9.34772843	     -5.32379381	      0.07289219	    -23.42137913	    -33.96182057	     14.45015229	     81.68862289	     45.00008208	      0.00000000	      0.00000000	    -28.20030707	    -40.64743628	     -3.53490112	     74.77158911	     45.00008208	      0.00000000	      0.00000000
